<?xml version="1.0" encoding="utf-8"?>
<!-- Generator: Adobe Illustrator 16.0.0, SVG Export Plug-In . SVG Version: 6.00 Build 0)  -->
<!DOCTYPE svg PUBLIC "-//W3C//DTD SVG 1.0//EN" "http://www.w3.org/TR/2001/REC-SVG-20010904/DTD/svg10.dtd">
<svg version="1.0" id="Ebene_1" xmlns="http://www.w3.org/2000/svg" xmlns:xlink="http://www.w3.org/1999/xlink" x="0px" y="0px"
	 width="293.339px" height="66.835px" viewBox="0 0 293.339 66.835" style="enable-background:new 0 0 293.339 66.835;"
	 xml:space="preserve">
<style type="text/css">
<![CDATA[
	.st0{fill:#009FA0;}
	.st1{fill:#414042;}
]]>
</style>
<g>
	<g>
		<g>
			<path class="st1" d="M94.948,47.524l0.008-1.269c0.023-3.246,1.064-3.846,2.508-3.846c1.649,0,2.294,1.147,2.294,3.602
				c0,0.373,0,0.57-0.015,0.936h-3.647v1.391c0,2.453,0.509,2.818,1.36,2.818c0.585,0,1.193-0.426,1.208-2.166V48.93h1.064v0.046
				c-0.137,1.565-0.555,2.948-2.257,2.948C95.609,51.924,94.918,50.959,94.948,47.524z M96.104,46.385h2.523v-0.016
				c-0.023-1.391,0.152-3.191-1.11-3.191c-1.406,0-1.413,1.102-1.413,3.184V46.385z"/>
			<path class="st1" d="M101.637,51.719V38.641h1.14v13.078H101.637z"/>
			<path class="st1" d="M104.686,47.524l0.008-1.269c0.023-3.246,1.064-3.846,2.508-3.846c1.649,0,2.294,1.147,2.294,3.602
				c0,0.373,0,0.57-0.015,0.936h-3.647v1.391c0,2.453,0.509,2.818,1.36,2.818c0.585,0,1.193-0.426,1.208-2.166V48.93h1.064v0.046
				c-0.137,1.565-0.555,2.948-2.257,2.948C105.347,51.924,104.655,50.959,104.686,47.524z M105.841,46.385h2.523v-0.016
				c-0.023-1.391,0.152-3.191-1.11-3.191c-1.406,0-1.413,1.102-1.413,3.184V46.385z"/>
			<path class="st1" d="M111.056,47.402v-0.471c0-2.12,0-4.521,2.485-4.521c1.816,0,2.211,1.459,2.302,3.1
				c0,0.031,0.008,0.054,0.008,0.084h-1.14v-0.068c-0.061-1.664-0.327-2.348-1.17-2.348c-1.193,0-1.345,1.063-1.345,3.754v0.471
				c0,2.736,0.22,3.754,1.345,3.754c0.813,0,1.094-0.684,1.17-2.424v-0.076h1.147v0.053c-0.076,1.764-0.44,3.215-2.317,3.215
				C111.056,51.924,111.056,49.689,111.056,47.402z"/>
			<path class="st1" d="M117.935,49.568v-6.314h-1.239v-0.639h1.239v-3.229h1.14v3.229h1.459v0.639h-1.459v6.262
				c0,0.919,0.03,1.488,0.775,1.488c0.221,0,0.449-0.015,0.669-0.061v0.783c-0.388,0.099-0.699,0.129-0.988,0.129
				C118.063,51.855,117.935,50.73,117.935,49.568z"/>
			<path class="st1" d="M122.001,51.719v-9.104h1.14v1.284c0.304-1.026,1.231-1.413,1.915-1.429h0.022v1.147
				c0,0-0.106-0.03-0.197-0.03c-0.874,0-1.74,0.266-1.74,1.338v6.793H122.001z"/>
			<path class="st1" d="M125.984,47.402v-0.471c0-2.12,0-4.521,2.409-4.521s2.409,2.401,2.409,4.521v0.471
				c0,2.287,0,4.521-2.409,4.521S125.984,49.689,125.984,47.402z M127.124,46.932v0.471c0,2.736,0.205,3.754,1.269,3.754
				s1.269-1.018,1.269-3.754v-0.471c0-2.69-0.16-3.754-1.269-3.754C127.269,43.178,127.124,44.241,127.124,46.932z"/>
			<path class="st1" d="M132.537,51.719v-9.104h1.14v0.859c0.509-0.745,1.239-1.064,1.93-1.064c0.813,0,1.702,0.699,1.702,2.158
				v7.15h-1.155v-7.174c0-0.965-0.44-1.291-0.965-1.291c-0.471,0-1.056,0.35-1.512,0.919v7.546H132.537z"/>
			<path class="st1" d="M139.302,40.533v-1.36h1.14v1.36H139.302z M139.302,51.719v-9.104h1.14v9.104H139.302z"/>
			<path class="st1" d="M142.198,47.402v-0.471c0-2.12,0-4.521,2.485-4.521c1.816,0,2.211,1.459,2.302,3.1
				c0,0.031,0.008,0.054,0.008,0.084h-1.14v-0.068c-0.061-1.664-0.327-2.348-1.17-2.348c-1.193,0-1.345,1.063-1.345,3.754v0.471
				c0,2.736,0.22,3.754,1.345,3.754c0.813,0,1.094-0.684,1.17-2.424v-0.076H147v0.053c-0.076,1.764-0.44,3.215-2.317,3.215
				C142.198,51.924,142.198,49.689,142.198,47.402z"/>
			<path class="st1" d="M152.498,51.719l-1.9-9.104h1.109l1.535,8.404l1.475-8.404h1.086l-1.831,9.104H152.498z"/>
			<path class="st1" d="M157.287,40.533v-1.36h1.14v1.36H157.287z M157.287,51.719v-9.104h1.14v9.104H157.287z"/>
			<path class="st1" d="M160.273,51.719v-9.104h1.141v1.284c0.304-1.026,1.23-1.413,1.915-1.429h0.022v1.147
				c0,0-0.106-0.03-0.197-0.03c-0.874,0-1.74,0.266-1.74,1.338v6.793H160.273z"/>
			<path class="st1" d="M165.047,49.568v-6.314h-1.239v-0.639h1.239v-3.229h1.14v3.229h1.459v0.639h-1.459v6.262
				c0,0.919,0.03,1.488,0.775,1.488c0.221,0,0.448-0.015,0.668-0.061v0.783c-0.387,0.099-0.699,0.129-0.987,0.129
				C165.176,51.855,165.047,50.73,165.047,49.568z"/>
			<path class="st1" d="M169.19,49.766v-7.15h1.155v7.174c0,0.965,0.44,1.291,0.965,1.291c0.471,0,1.057-0.35,1.512-0.919v-7.546
				h1.141v9.104h-1.141v-0.859c-0.509,0.746-1.238,1.064-1.93,1.064C170.08,51.924,169.19,51.225,169.19,49.766z"/>
			<path class="st1" d="M179.306,51.719l-0.145-1.102c-0.517,0.904-1.33,1.307-1.922,1.307c-0.882,0-1.801-0.752-1.801-2.021
				c0-1.178,0.053-2.279,3.639-3.754v-0.076c-0.008-2.666-0.562-2.895-1.117-2.895c-0.447,0-1.07,0.175-1.162,1.732v0.053h-1.186
				c0.122-1.588,0.98-2.553,2.311-2.553c1.93,0,2.311,1.58,2.311,2.834v4.377c0,1.072,0.137,2.098,0.137,2.098H179.306z
				 M179.078,49.865v-3.207c-1.572,1.086-2.492,1.785-2.492,3.031c0,0.95,0.494,1.285,0.92,1.285
				C178.083,50.975,178.744,50.518,179.078,49.865z"/>
			<path class="st1" d="M182.386,51.719V38.641h1.14v13.078H182.386z"/>
			<path class="st1" d="M188.148,40.533v-1.36h1.14v1.36H188.148z M188.148,51.719v-9.104h1.14v9.104H188.148z"/>
			<path class="st1" d="M191.134,51.719v-9.104h1.141v0.859c0.51-0.745,1.238-1.064,1.93-1.064c0.813,0,1.703,0.699,1.703,2.158
				v7.15h-1.156v-7.174c0-0.965-0.439-1.291-0.965-1.291c-0.471,0-1.056,0.35-1.512,0.919v7.546H191.134z"/>
			<path class="st1" d="M197.307,49.439l0.874-0.297c0.258,0.791,0.866,1.961,1.785,1.961c0.829,0,1.201-0.562,1.201-1.354
				c0-0.729-0.798-1.572-1.558-2.241l-0.661-0.577c-0.812-0.715-1.52-1.398-1.52-2.348c0-1.398,0.927-2.158,2.287-2.158
				c1.359,0,2.044,1.132,2.332,2.31l-1.01,0.312c-0.121-0.752-0.532-1.801-1.375-1.801c-0.691,0-1.109,0.524-1.109,1.238
				c0,0.661,0.501,1.201,1.139,1.748l0.723,0.623c0.881,0.768,1.801,1.572,1.823,2.873c0,1.383-0.973,2.195-2.317,2.195
				C198.5,51.924,197.634,50.762,197.307,49.439z"/>
			<path class="st1" d="M204.035,49.568v-6.314h-1.239v-0.639h1.239v-3.229h1.139v3.229h1.459v0.639h-1.459v6.262
				c0,0.919,0.031,1.488,0.775,1.488c0.221,0,0.449-0.015,0.669-0.061v0.783c-0.388,0.099-0.699,0.129-0.987,0.129
				C204.164,51.855,204.035,50.73,204.035,49.568z"/>
			<path class="st1" d="M208.101,51.719v-9.104h1.14v1.284c0.304-1.026,1.231-1.413,1.915-1.429h0.022v1.147
				c0,0-0.106-0.03-0.197-0.03c-0.874,0-1.74,0.266-1.74,1.338v6.793H208.101z"/>
			<path class="st1" d="M212.501,49.766v-7.15h1.156v7.174c0,0.965,0.439,1.291,0.965,1.291c0.471,0,1.056-0.35,1.512-0.919v-7.546
				h1.14v9.104h-1.14v-0.859c-0.51,0.746-1.238,1.064-1.93,1.064C213.391,51.924,212.501,51.225,212.501,49.766z"/>
			<path class="st1" d="M219.099,51.719v-9.104h1.148v0.844c0.623-0.737,1.375-1.049,2.074-1.049c0.615,0,1.314,0.426,1.572,1.033
				c0.639-0.722,1.467-1.033,2.007-1.033c0.904,0,1.794,0.707,1.794,1.702v7.606h-1.141v-7.371c0-0.798-0.463-1.094-0.988-1.094
				c-0.455,0-1.041,0.281-1.496,0.736v7.729h-1.141V44.34c0-0.797-0.463-1.086-1.018-1.086c-0.518,0-1.178,0.35-1.672,0.904v7.561
				H219.099z"/>
			<path class="st1" d="M229.513,47.524l0.008-1.269c0.023-3.246,1.064-3.846,2.508-3.846c1.649,0,2.295,1.147,2.295,3.602
				c0,0.373,0,0.57-0.016,0.936h-3.646v1.391c0,2.453,0.509,2.818,1.359,2.818c0.586,0,1.193-0.426,1.209-2.166V48.93h1.063v0.046
				c-0.137,1.565-0.555,2.948-2.257,2.948C230.175,51.924,229.484,50.959,229.513,47.524z M230.669,46.385h2.522v-0.016
				c-0.022-1.391,0.151-3.191-1.11-3.191c-1.405,0-1.412,1.102-1.412,3.184V46.385z"/>
			<path class="st1" d="M235.974,51.719v-9.104h1.141v0.859c0.51-0.745,1.238-1.064,1.93-1.064c0.813,0,1.703,0.699,1.703,2.158
				v7.15h-1.156v-7.174c0-0.965-0.439-1.291-0.965-1.291c-0.471,0-1.056,0.35-1.512,0.919v7.546H235.974z"/>
			<path class="st1" d="M243.097,49.568v-6.314h-1.238v-0.639h1.238v-3.229h1.14v3.229h1.459v0.639h-1.459v6.262
				c0,0.919,0.03,1.488,0.774,1.488c0.221,0,0.449-0.015,0.67-0.061v0.783c-0.389,0.099-0.699,0.129-0.988,0.129
				C243.226,51.855,243.097,50.73,243.097,49.568z"/>
			<path class="st1" d="M246.662,49.439l0.875-0.297c0.258,0.791,0.865,1.961,1.785,1.961c0.828,0,1.201-0.562,1.201-1.354
				c0-0.729-0.799-1.572-1.559-2.241l-0.66-0.577c-0.813-0.715-1.521-1.398-1.521-2.348c0-1.398,0.927-2.158,2.288-2.158
				c1.359,0,2.043,1.132,2.332,2.31l-1.01,0.312c-0.122-0.752-0.533-1.801-1.376-1.801c-0.691,0-1.109,0.524-1.109,1.238
				c0,0.661,0.501,1.201,1.14,1.748l0.722,0.623c0.882,0.768,1.802,1.572,1.823,2.873c0,1.383-0.973,2.195-2.316,2.195
				C247.855,51.924,246.99,50.762,246.662,49.439z"/>
		</g>
		<g>
			<path class="st1" d="M75.73,28.32l3.693-0.711c0,1.582,0.13,3.443,1.392,3.443c0.86,0,1.081-0.621,1.081-1.381
				c0-1.501-1.081-2.843-2.132-3.764l-1.131-0.961c-1.421-1.201-2.893-2.522-2.893-5.115c0-2.953,2.052-4.745,5.085-4.745
				c2.562,0,4.595,2.092,4.595,4.645c0,0.061-0.01,0.141-0.01,0.431l-3.764,0.521c0-0.23,0.03-0.45,0.03-0.73
				c0-0.851-0.19-2.072-1.151-2.072c-0.861,0-1.201,0.821-1.201,1.582c0,1.292,0.681,2.092,1.542,2.813
				c0.46,0.39,0.911,0.761,1.331,1.141c1.852,1.652,3.243,3.344,3.243,6.126c0,2.583-2.122,4.305-4.634,4.305
				C77.352,33.846,75.87,31.143,75.73,28.32z"/>
			<path class="st1" d="M88.836,33.475V18.18h-2.643v-2.723h8.879v2.723h-2.593v15.295H88.836z"/>
			<path class="st1" d="M96.747,26.778V15.458h3.644v11.211c0,3.033,0,4.344,1.611,4.344c1.622,0,1.611-1.312,1.611-4.344V15.458
				h3.644v11.321c0,3.714-0.67,7.047-5.255,7.047C97.428,33.825,96.747,30.492,96.747,26.778z"/>
			<path class="st1" d="M109.833,33.475V15.458h3.964c3.483,0,5.746,1.241,5.746,4.745c0,1.582-0.221,3.604-2.453,4.564
				c0.901,2.863,1.812,5.716,2.823,8.708h-3.773l-2.062-8.298h-0.601v8.298H109.833z M113.477,22.955h1.041
				c1.211,0,1.401-1.792,1.401-2.463c0-0.66-0.14-2.362-1.231-2.362h-1.211V22.955z"/>
			<path class="st1" d="M121.698,33.475V15.458h4.364l1.922,12.012l2.072-12.012h4.214v18.018h-2.683l-0.08-12.672
				c-0.591,3.894-1.512,8.778-2.103,12.672h-2.723l-2.212-12.752l-0.08,12.752H121.698z"/>
			<path class="st1" d="M136.426,28.32l3.694-0.711c0,1.582,0.13,3.443,1.391,3.443c0.861,0,1.081-0.621,1.081-1.381
				c0-1.501-1.081-2.843-2.132-3.764l-1.131-0.961c-1.422-1.201-2.893-2.522-2.893-5.115c0-2.953,2.052-4.745,5.085-4.745
				c2.562,0,4.594,2.092,4.594,4.645c0,0.061-0.01,0.141-0.01,0.431l-3.764,0.521c0-0.23,0.03-0.45,0.03-0.73
				c0-0.851-0.19-2.072-1.151-2.072c-0.861,0-1.201,0.821-1.201,1.582c0,1.292,0.681,2.092,1.542,2.813
				c0.46,0.39,0.911,0.761,1.332,1.141c1.852,1.652,3.243,3.344,3.243,6.126c0,2.583-2.122,4.305-4.635,4.305
				C138.048,33.846,136.566,31.143,136.426,28.32z"/>
			<path class="st1" d="M147.951,27.549v-6.056c0-3.573,1.252-6.386,5.266-6.386s5.275,2.812,5.275,6.386v5.966
				c0,3.474-1.281,6.366-5.275,6.366C149.242,33.825,147.951,31.022,147.951,27.549z M154.847,28.37v-7.788
				c0-1.151-0.24-2.663-1.631-2.663c-1.382,0-1.622,1.531-1.622,2.663v7.788c0,1.141,0.229,2.652,1.622,2.652
				C154.626,31.022,154.847,29.531,154.847,28.37z"/>
			<path class="st1" d="M160.837,26.778V15.458h3.643v11.211c0,3.033,0,4.344,1.611,4.344c1.622,0,1.611-1.312,1.611-4.344V15.458
				h3.645v11.321c0,3.714-0.671,7.047-5.256,7.047C161.517,33.825,160.837,30.492,160.837,26.778z"/>
			<path class="st1" d="M173.923,33.475V15.447h2.623l3.953,9.43v-9.43h3.023v18.028H181l-3.943-10v10H173.923z"/>
			<path class="st1" d="M186.179,33.475V15.458h3.764c4.824,0,5.975,1.742,5.975,5.835v5.906c0,4.204-0.83,6.276-6.016,6.276
				H186.179z M189.822,30.923h0.08c1.861,0,2.373-0.11,2.373-1.722v-9.7c0-1.261-0.771-1.471-2.312-1.481h-0.141V30.923z"/>
			<path class="st1" d="M197.843,28.32l3.693-0.711c0,1.582,0.131,3.443,1.391,3.443c0.861,0,1.082-0.621,1.082-1.381
				c0-1.501-1.082-2.843-2.133-3.764l-1.131-0.961c-1.422-1.201-2.893-2.522-2.893-5.115c0-2.953,2.053-4.745,5.085-4.745
				c2.562,0,4.595,2.092,4.595,4.645c0,0.061-0.01,0.141-0.01,0.431l-3.764,0.521c0-0.23,0.029-0.45,0.029-0.73
				c0-0.851-0.189-2.072-1.15-2.072c-0.861,0-1.201,0.821-1.201,1.582c0,1.292,0.68,2.092,1.541,2.813
				c0.461,0.39,0.91,0.761,1.332,1.141c1.852,1.652,3.242,3.344,3.242,6.126c0,2.583-2.121,4.305-4.635,4.305
				C199.464,33.846,197.984,31.143,197.843,28.32z"/>
			<path class="st1" d="M210.617,26.421v-2.232h4.174v2.232H210.617z"/>
			<path class="st0" d="M219.957,33.475V15.458h7.517v2.502h-3.874v4.905h2.742v2.562h-2.742v5.545h3.874v2.502H219.957z"/>
			<path class="st0" d="M229.369,33.475V15.458h3.643v15.515h3.584v2.502H229.369z"/>
			<path class="st0" d="M238.41,33.475V15.458h7.518v2.502h-3.873v4.905h2.742v2.562h-2.742v5.545h3.873v2.502H238.41z"/>
			<path class="st0" d="M247.591,27.459v-5.966c0-3.563,1.211-6.386,5.226-6.386c3.733,0,5.056,2.532,5.056,6.006v1.551h-3.584
				v-1.662c0-1.341-0.09-3.083-1.472-3.083c-1.372,0-1.581,1.552-1.581,2.663v7.778c0,1.121,0.199,2.652,1.581,2.652
				c1.331,0,1.501-1.691,1.491-3.093v-1.852h3.564l-0.011,1.521c-0.05,3.243-1.132,6.236-5.045,6.236
				C248.813,33.825,247.591,30.933,247.591,27.459z"/>
			<path class="st0" d="M261.83,33.475V18.18h-2.643v-2.723h8.879v2.723h-2.594v15.295H261.83z"/>
			<path class="st0" d="M269.82,33.475V15.458h3.965c3.482,0,5.744,1.241,5.744,4.745c0,1.582-0.219,3.604-2.451,4.564
				c0.9,2.863,1.811,5.716,2.822,8.708h-3.773l-2.062-8.298h-0.6v8.298H269.82z M273.464,22.955h1.041c1.211,0,1.4-1.792,1.4-2.463
				c0-0.66-0.141-2.362-1.23-2.362h-1.211V22.955z"/>
			<path class="st0" d="M281.445,27.549v-6.056c0-3.573,1.252-6.386,5.266-6.386s5.275,2.812,5.275,6.386v5.966
				c0,3.474-1.281,6.366-5.275,6.366C282.736,33.825,281.445,31.022,281.445,27.549z M288.341,28.37v-7.788
				c0-1.151-0.24-2.663-1.631-2.663c-1.382,0-1.622,1.531-1.622,2.663v7.788c0,1.141,0.229,2.652,1.622,2.652
				C288.121,31.022,288.341,29.531,288.341,28.37z"/>
		</g>
	</g>
</g>
<g>
	<g>
		<path class="st1" d="M33.852,66.821C14.696,66.307-0.484,50.903,0.012,32.482C0.507,14.063,16.495-0.501,35.649,0.013
			c19.155,0.515,34.335,15.919,33.839,34.337C68.994,52.772,53.006,67.337,33.852,66.821z M35.575,2.791
			C17.952,2.317,3.245,15.671,2.791,32.557C2.336,49.445,16.304,63.568,33.926,64.043c17.623,0.474,32.329-12.879,32.783-29.767
			C67.165,17.391,53.197,3.266,35.575,2.791z"/>
	</g>
	<path class="st1" d="M55.096,14.097c-0.186-1.204-1.05-1.397-1.69-1.328c-0.818,0.088-16.084,2.012-16.575,2.073
		c-5.331,0.692-9.181,1.375-9.181,1.375l-0.116,0.01c-0.414-0.051-0.828-0.089-1.254-0.101c-6.492-0.175-11.901,4.951-12.075,11.444
		c-0.145,5.375,3.341,9.993,8.229,11.53c0,0,2.28,18.162,2.45,19.524c0.17,1.364,1.215,2.314,2.338,2.175
		c1.04-0.13,4.403-0.558,5.948-0.75c1.083-0.136,1.839-1.255,1.671-2.596c-0.121-0.966-2.464-19.728-2.464-19.728
		c3.156-2.032,5.244-5.489,5.352-9.524c0.046-1.703-0.241-3.279-0.855-4.754l-0.03-0.032c0,0,17.162-2.203,17.771-2.279
		c0.667-0.083,1.3-0.468,1.17-1.504C55.662,18.667,55.279,15.289,55.096,14.097z M26.447,33.47c-3.231,0.403-6.177-1.889-6.58-5.12
		c-0.403-3.232,1.889-6.178,5.12-6.581s6.177,1.889,6.581,5.121C31.971,30.121,29.678,33.067,26.447,33.47z M54.201,18.719
		c0.088,0.706-0.27,1.036-0.883,1.112c-0.262,0.033-12.524,1.632-12.524,1.632l-0.731-5.625c3.814-0.488,12.306-1.519,12.486-1.542
		c0.569-0.071,1.142,0.246,1.225,0.913C53.901,16.229,54.096,17.879,54.201,18.719z"/>
</g>
</svg>
