<?xml version="1.0" encoding="utf-8"?>
<!-- Generator: Adobe Illustrator 16.0.0, SVG Export Plug-In . SVG Version: 6.00 Build 0)  -->
<!DOCTYPE svg PUBLIC "-//W3C//DTD SVG 1.0//EN" "http://www.w3.org/TR/2001/REC-SVG-20010904/DTD/svg10.dtd">
<svg version="1.0" id="Ebene_1" xmlns="http://www.w3.org/2000/svg" xmlns:xlink="http://www.w3.org/1999/xlink" x="0px" y="0px"
	 width="69.5px" height="66.835px" viewBox="0 0 69.5 66.835" style="enable-background:new 0 0 69.5 66.835;" xml:space="preserve"
	>
<style type="text/css">
<![CDATA[
	.st0{fill:#414042;}
]]>
</style>
<g>
	<g>
		<path class="st0" d="M33.852,66.821C14.696,66.307-0.484,50.903,0.012,32.482C0.507,14.063,16.495-0.501,35.649,0.013
			c19.155,0.515,34.335,15.919,33.839,34.337C68.994,52.772,53.006,67.337,33.852,66.821z M35.575,2.791
			C17.952,2.317,3.245,15.671,2.791,32.557C2.336,49.445,16.304,63.568,33.926,64.043c17.623,0.474,32.329-12.879,32.783-29.767
			C67.165,17.391,53.197,3.266,35.575,2.791z"/>
	</g>
	<path class="st0" d="M55.096,14.097c-0.186-1.204-1.05-1.397-1.69-1.328c-0.818,0.088-16.084,2.012-16.575,2.073
		c-5.331,0.692-9.181,1.375-9.181,1.375l-0.116,0.01c-0.414-0.051-0.828-0.089-1.254-0.101c-6.492-0.175-11.901,4.951-12.075,11.443
		c-0.145,5.375,3.341,9.993,8.229,11.53c0,0,2.28,18.162,2.45,19.524c0.17,1.364,1.215,2.314,2.338,2.175
		c1.04-0.13,4.403-0.558,5.948-0.75c1.083-0.136,1.839-1.255,1.671-2.596c-0.121-0.966-2.464-19.728-2.464-19.728
		c3.156-2.032,5.244-5.489,5.352-9.523c0.046-1.703-0.241-3.279-0.855-4.755l-0.03-0.032c0,0,17.162-2.203,17.771-2.279
		c0.667-0.083,1.3-0.467,1.17-1.503C55.662,18.667,55.279,15.289,55.096,14.097z M26.447,33.471c-3.231,0.402-6.177-1.89-6.58-5.121
		c-0.403-3.231,1.889-6.178,5.12-6.58c3.231-0.404,6.177,1.889,6.581,5.121C31.971,30.121,29.678,33.067,26.447,33.471z
		 M54.201,18.719c0.088,0.706-0.27,1.036-0.883,1.112c-0.262,0.033-12.524,1.632-12.524,1.632l-0.731-5.624
		c3.814-0.488,12.306-1.519,12.486-1.542c0.569-0.071,1.142,0.246,1.225,0.913C53.901,16.229,54.096,17.879,54.201,18.719z"/>
</g>
</svg>
